<?xml version="1.0" standalone="no"?>
<!DOCTYPE svg PUBLIC "-//W3C//DTD SVG 20010904//EN"
 "http://www.w3.org/TR/2001/REC-SVG-20010904/DTD/svg10.dtd">
<svg version="1.0" xmlns="http://www.w3.org/2000/svg"
 width="268.000000pt" height="268.000000pt" viewBox="0 0 268.000000 268.000000"
 preserveAspectRatio="xMidYMid meet">
<metadata>
Created by potrace 1.14, written by Peter Selinger 2001-2017
</metadata>
<g transform="translate(0.000000,268.000000) scale(0.100000,-0.100000)"
fill="#000000" stroke="none">
<path d="M9 2445 c-4 -44 -3 -2208 2 -2211 8 -4 1339 -8 1342 -3 8 15 161 333
240 499 27 58 74 161 104 230 30 69 56 127 58 129 2 2 18 -28 36 -65 17 -38
112 -232 211 -431 152 -307 183 -363 201 -364 99 -3 460 1 464 5 3 2 -19 47
-48 98 -72 128 -77 137 -149 268 -35 63 -72 131 -83 150 -11 19 -38 69 -60
110 -22 41 -48 86 -57 100 -9 14 -27 45 -39 70 -12 25 -30 59 -40 75 -20 34
-58 103 -106 190 l-32 60 169 315 c93 173 200 374 237 445 38 72 92 172 120
224 28 52 51 98 51 103 0 4 -103 8 -230 8 l-230 0 -21 -47 c-12 -25 -72 -157
-134 -292 -61 -135 -132 -296 -156 -358 -24 -62 -48 -113 -52 -113 -6 0 -137
262 -137 274 0 2 -58 123 -130 270 l-130 266 -245 0 c-136 0 -244 -3 -242 -7
8 -15 125 -229 161 -295 104 -194 145 -269 186 -343 9 -16 41 -75 70 -130 29
-55 66 -122 82 -150 15 -27 40 -73 54 -101 l27 -51 -83 -154 c-115 -214 -238
-439 -255 -469 -8 -14 -29 -52 -46 -86 l-32 -61 -318 0 -319 0 0 924 0 923
-47 1 c-343 4 -393 3 -394 -6z"/>
</g>
</svg>
