<svg width="30" height="30" viewBox="0 0 30 30" fill="none" xmlns="http://www.w3.org/2000/svg">
<circle cx="15" cy="15" r="15" fill="#F43939"/>
<path fill-rule="evenodd" clip-rule="evenodd" d="M8.51256 8.51256C9.19598 7.82915 10.304 7.82915 10.9874 8.51256L15 12.5251L19.0126 8.51256C19.696 7.82915 20.804 7.82915 21.4874 8.51256C22.1709 9.19598 22.1709 10.304 21.4874 10.9874L17.4749 15L21.4874 19.0126C22.1709 19.696 22.1709 20.804 21.4874 21.4874C20.804 22.1709 19.696 22.1709 19.0126 21.4874L15 17.4749L10.9874 21.4874C10.304 22.1709 9.19598 22.1709 8.51256 21.4874C7.82915 20.804 7.82915 19.696 8.51256 19.0126L12.5251 15L8.51256 10.9874C7.82915 10.304 7.82915 9.19598 8.51256 8.51256Z" fill="white"/>
</svg>
